<?xml version="1.0" standalone="no"?>
<!DOCTYPE svg PUBLIC "-//W3C//DTD SVG 20010904//EN"
 "http://www.w3.org/TR/2001/REC-SVG-20010904/DTD/svg10.dtd">
<svg version="1.0" xmlns="http://www.w3.org/2000/svg"
 width="1024.000000pt" height="1024.000000pt" viewBox="0 0 1024.000000 1024.000000"
 preserveAspectRatio="xMidYMid meet">
<metadata>
Created by potrace 1.14, written by Peter Selinger 2001-2017
</metadata>
<g transform="translate(0.000000,1024.000000) scale(0.100000,-0.100000)"
fill="#000000" stroke="none">
<path d="M3896 7308 c-9 -13 -16 -43 -16 -70 0 -52 -9 -61 -73 -73 -20 -4 -41
-14 -46 -23 -12 -22 -1 -52 20 -52 10 0 21 -5 24 -10 4 -6 14 -10 23 -9 35 3
41 -2 47 -38 10 -59 32 -103 54 -103 29 0 40 22 47 89 l7 61 34 0 c40 0 83 25
83 50 0 19 -33 53 -43 43 -4 -3 -25 2 -47 12 -39 18 -40 19 -40 70 0 28 -5 56
-12 63 -19 19 -45 14 -62 -10z"/>
<path d="M6419 7299 c-6 -12 -12 -45 -13 -73 l-1 -51 -53 -10 c-57 -11 -74
-27 -63 -59 6 -15 22 -23 62 -31 l54 -10 6 -55 c7 -65 23 -100 46 -100 26 0
42 32 43 81 0 58 15 77 65 81 31 2 43 9 55 30 14 25 13 28 -5 42 -11 8 -38 18
-60 22 -48 8 -55 17 -55 69 0 71 -54 114 -81 64z"/>
<path d="M5050 5619 c-66 -14 -124 -30 -155 -43 -16 -8 -37 -17 -45 -20 -72
-32 -220 -163 -252 -225 -7 -14 -16 -28 -19 -31 -13 -10 -70 -142 -65 -148 3
-3 -1 -13 -10 -23 -11 -13 -15 -28 -11 -48 4 -17 2 -33 -3 -36 -9 -6 -7 -108
5 -190 7 -50 28 -120 48 -162 8 -18 7 -27 -6 -41 -10 -10 -17 -23 -17 -29 0
-6 -11 -21 -25 -34 -13 -13 -25 -30 -25 -37 0 -7 -9 -22 -19 -33 -11 -12 -22
-32 -26 -46 -3 -14 -17 -42 -31 -62 -13 -19 -24 -41 -24 -47 0 -7 -6 -14 -13
-17 -7 -3 -19 -23 -27 -46 -7 -22 -21 -48 -32 -57 -10 -10 -18 -22 -18 -27 0
-6 -11 -25 -25 -43 -14 -18 -25 -42 -25 -53 0 -12 -5 -21 -11 -21 -5 0 -19
-19 -30 -42 -30 -64 -51 -97 -81 -132 -16 -17 -28 -37 -28 -45 0 -8 -6 -22
-14 -30 -26 -31 -86 -121 -86 -130 0 -5 -11 -18 -25 -29 -14 -11 -25 -29 -25
-39 0 -11 -11 -30 -25 -43 -14 -13 -25 -29 -25 -36 0 -6 -7 -14 -15 -18 -8 -3
-15 -10 -15 -16 0 -6 -13 -25 -30 -43 -16 -18 -30 -38 -30 -44 0 -7 -4 -13
-10 -13 -5 0 -10 -5 -10 -11 0 -15 -160 -219 -171 -219 -5 0 -9 -5 -9 -11 0
-6 -15 -29 -33 -52 -19 -23 -37 -50 -40 -59 -4 -10 -13 -18 -22 -18 -8 0 -15
-7 -15 -15 0 -9 -11 -20 -24 -25 -14 -5 -30 -18 -36 -30 -6 -11 -17 -20 -25
-20 -8 0 -15 -6 -15 -14 0 -8 -13 -23 -30 -33 -16 -9 -30 -22 -30 -28 0 -6
-18 -26 -40 -44 -22 -18 -40 -38 -40 -45 0 -7 -13 -22 -30 -34 -16 -13 -30
-28 -30 -35 0 -7 -22 -37 -50 -66 l-49 -53 -123 -3 c-68 -2 -131 -3 -141 -4
-25 -1 -67 -46 -67 -71 0 -35 36 -62 80 -59 22 2 41 1 44 -1 2 -3 39 -3 81 0
59 4 79 2 83 -8 3 -8 11 -10 21 -6 22 10 531 13 537 3 3 -5 15 -5 27 -1 12 4
146 7 297 5 324 -2 446 -2 480 -1 14 1 42 -1 63 -4 21 -3 40 -2 43 3 2 5 16 4
31 -2 14 -5 31 -6 37 -1 13 9 53 7 79 -3 9 -4 17 -3 17 1 0 5 44 8 98 6 221
-6 934 -7 938 -1 2 4 19 4 36 0 18 -3 47 -5 63 -3 17 1 50 2 75 1 69 -1 152 0
185 2 17 2 40 -1 51 -4 12 -4 32 -3 46 2 13 5 42 6 64 2 21 -4 71 -5 109 -1
39 3 88 3 110 0 22 -3 55 -2 73 1 17 4 49 3 69 -1 20 -5 42 -6 47 -2 6 3 85 7
176 8 91 1 172 2 180 3 32 4 301 -7 306 -12 3 -3 20 -1 37 4 18 6 57 9 87 9
133 -4 160 1 183 32 17 23 19 31 9 53 -16 35 -53 47 -147 51 -44 1 -84 3 -90
5 -5 1 -18 -1 -27 -5 -25 -11 -76 23 -128 86 -25 29 -52 59 -62 66 -10 7 -18
17 -18 21 0 5 -21 31 -47 58 -27 28 -71 75 -99 104 -28 30 -71 72 -95 94 -57
52 -119 123 -119 135 0 6 -4 10 -10 10 -5 0 -10 7 -10 15 0 8 -4 15 -8 15 -5
0 -26 25 -47 55 -20 30 -41 55 -46 55 -5 0 -9 6 -9 14 0 7 -14 29 -30 47 -17
19 -38 46 -46 62 -8 15 -19 27 -24 27 -5 0 -12 10 -16 23 -4 12 -15 28 -25 35
-11 7 -19 19 -19 27 0 8 -6 18 -13 22 -6 4 -19 22 -27 38 -8 17 -25 41 -37 55
-13 14 -23 30 -23 37 0 6 -13 24 -28 40 -16 15 -32 41 -36 56 -4 16 -11 34
-16 40 -20 24 -80 119 -80 127 0 4 -13 26 -30 48 -16 23 -30 48 -30 56 0 8 -7
16 -15 20 -8 3 -15 10 -15 17 0 6 -10 25 -22 42 -13 17 -42 69 -65 114 -22 45
-50 95 -61 110 -10 15 -31 54 -45 85 -15 31 -31 60 -37 63 -5 3 -17 23 -27 43
-9 20 -28 45 -40 55 -27 22 -28 35 -8 73 8 16 15 36 15 44 0 8 7 33 15 55 20
56 19 222 -1 304 -29 117 -107 243 -199 322 -22 19 -42 37 -45 41 -14 19 -107
71 -190 107 -78 33 -283 49 -380 30z m245 -140 c22 -5 47 -13 55 -16 8 -3 26
-7 40 -9 14 -2 26 -8 28 -14 2 -5 10 -10 18 -10 8 0 14 -4 14 -10 0 -5 9 -10
19 -10 11 0 35 -13 53 -30 18 -16 38 -30 44 -30 6 0 28 -21 47 -47 20 -27 40
-52 45 -58 21 -27 54 -87 67 -126 22 -60 23 -251 2 -299 -9 -19 -16 -29 -16
-22 -1 6 -7 12 -15 12 -8 0 -16 3 -18 8 -6 13 -76 62 -90 62 -8 0 -18 4 -23 9
-6 6 -21 12 -35 15 -14 2 -32 7 -40 10 -44 16 -208 27 -424 26 -26 0 -53 -3
-59 -7 -6 -3 -27 -7 -46 -8 -43 -2 -102 -15 -116 -24 -5 -4 -30 -14 -55 -21
-43 -14 -67 -29 -115 -78 -23 -23 -41 -16 -43 18 -1 8 -4 33 -7 55 -15 92 -3
208 26 272 10 23 19 44 19 47 0 14 69 104 108 140 49 47 126 95 197 122 84 32
242 44 320 23z m-30 -682 c8 -4 17 -3 19 2 6 9 64 2 71 -9 2 -4 23 -4 45 0 26
5 46 3 57 -5 10 -7 30 -15 45 -19 15 -3 43 -20 62 -36 18 -17 39 -30 45 -30 6
0 11 -7 11 -15 0 -8 9 -19 19 -25 11 -5 28 -24 38 -40 9 -17 25 -32 33 -35 9
-3 23 -21 30 -40 8 -19 17 -35 21 -35 5 0 16 -17 25 -37 10 -21 24 -42 31 -46
7 -4 13 -15 13 -24 0 -9 7 -24 15 -33 8 -9 33 -51 55 -93 21 -42 46 -87 55
-100 8 -13 13 -26 10 -29 -3 -3 6 -16 20 -29 13 -13 25 -31 25 -40 0 -9 7 -22
15 -29 8 -7 15 -17 15 -22 0 -5 11 -24 25 -42 14 -18 25 -37 25 -43 0 -18 40
-93 50 -93 6 0 10 -6 10 -14 0 -8 6 -21 13 -28 7 -7 21 -34 31 -60 10 -27 22
-48 28 -48 13 0 30 -19 46 -50 7 -14 20 -37 30 -51 9 -14 29 -44 44 -67 15
-22 32 -43 38 -47 5 -3 10 -13 10 -21 0 -8 13 -27 29 -43 16 -15 34 -39 41
-51 12 -22 145 -198 159 -210 3 -3 15 -15 25 -27 l19 -23 -49 1 c-123 2 -233
-33 -302 -95 -55 -49 -102 -97 -102 -104 0 -4 -12 -18 -25 -31 -14 -13 -25
-29 -25 -37 0 -8 -5 -14 -10 -14 -6 0 -15 -10 -20 -22 -6 -13 -14 -30 -19 -38
-5 -8 -20 -42 -33 -75 l-24 -60 -209 -2 c-116 -1 -244 -2 -285 -2 -41 0 -155
0 -253 0 -134 -1 -178 2 -181 12 -48 181 -137 327 -264 430 -55 44 -88 61
-162 81 -64 17 -194 16 -227 -2 -12 -7 -26 -11 -30 -10 -23 6 -175 -98 -215
-147 -9 -11 -32 -38 -52 -60 -20 -22 -36 -46 -36 -52 0 -25 -25 -12 -50 23
-41 61 -155 144 -197 144 -8 0 -25 7 -39 16 -15 10 -49 17 -89 19 -36 1 -68 4
-71 7 -7 7 25 60 43 71 7 4 13 15 13 22 0 8 7 15 15 15 8 0 15 6 15 14 0 8 14
28 30 44 17 17 30 33 30 37 0 3 9 15 20 27 11 12 20 28 20 35 0 7 4 13 9 13 5
0 28 30 52 68 23 37 46 69 51 70 4 2 8 8 8 12 0 5 23 39 50 76 28 37 50 73 50
80 0 8 5 14 10 14 6 0 14 8 17 18 4 9 21 35 38 57 17 22 40 57 49 78 10 22 26
47 37 58 10 10 19 27 19 37 0 10 13 33 30 52 16 19 29 41 30 49 0 7 14 30 30
51 17 21 30 47 30 58 0 11 7 25 15 32 8 7 15 17 15 23 0 5 11 25 25 43 14 18
25 40 25 48 0 9 3 16 8 16 4 0 13 14 21 31 7 17 29 51 47 75 19 24 34 50 34
57 0 7 14 26 31 43 16 16 38 47 48 69 16 35 62 85 142 151 23 19 152 58 175
53 5 -1 16 1 24 4 8 3 26 7 40 9 40 5 208 1 225 -5z m-615 -1775 c28 -2 54
-12 70 -27 14 -12 35 -26 48 -30 12 -3 22 -11 22 -16 0 -5 17 -26 38 -47 38
-36 126 -183 128 -212 1 -8 4 -24 8 -36 l6 -21 -375 0 c-207 0 -378 -3 -381
-6 -11 -11 -34 5 -34 25 0 37 54 147 95 193 11 13 34 41 50 64 17 22 35 40 42
41 6 0 13 4 15 8 7 16 98 62 125 63 15 0 37 4 48 9 11 5 27 6 35 3 8 -4 35 -8
60 -11z m2037 -58 c13 -2 37 -10 55 -18 17 -9 36 -16 41 -16 6 0 17 -7 26 -15
9 -8 39 -33 67 -54 28 -22 61 -55 73 -75 12 -19 31 -38 41 -41 10 -3 22 -14
25 -24 3 -10 17 -31 30 -47 14 -16 25 -31 25 -34 0 -3 -93 -6 -208 -8 -114 -2
-211 -3 -217 -3 -5 0 -60 0 -121 1 -61 2 -120 -1 -131 -4 -12 -4 -24 -3 -27 3
-3 5 -15 7 -26 4 -13 -3 -20 0 -20 8 0 10 -2 11 -8 2 -4 -6 -27 -13 -52 -14
-36 -3 -45 0 -48 14 -4 21 38 108 55 114 7 3 10 9 7 14 -6 10 7 27 49 66 15
15 27 32 27 39 0 7 10 16 23 19 12 4 31 15 42 25 11 10 38 24 60 30 45 14 165
28 180 21 5 -3 20 -6 32 -7z m-2840 -40 c21 -10 41 -22 44 -26 3 -4 20 -19 37
-32 57 -42 127 -171 101 -187 -6 -3 -9 -14 -7 -24 3 -18 -12 -19 -287 -21
-159 -1 -327 -4 -372 -5 -90 -3 -108 3 -75 27 12 8 22 22 22 31 0 13 21 38 91
111 43 44 79 72 93 72 9 0 16 6 16 14 0 15 21 26 50 26 10 0 20 6 23 14 11 29
202 29 264 0z"/>
<path d="M4832 4439 c-36 -14 -63 -45 -71 -82 -12 -50 8 -90 58 -114 41 -20
41 -20 80 -1 66 33 83 114 34 167 -31 33 -67 44 -101 30z"/>
<path d="M5454 4434 c-44 -22 -69 -84 -50 -128 32 -76 111 -98 165 -47 41 38
48 73 25 122 -12 28 -28 45 -52 55 -43 17 -49 17 -88 -2z"/>
<path d="M5060 4291 c-19 -37 -12 -84 21 -124 17 -20 39 -37 50 -37 11 0 28
-4 37 -9 12 -6 31 -2 62 12 57 28 97 97 81 140 -20 52 -71 42 -71 -14 0 -33
-23 -59 -54 -59 -28 0 -52 25 -62 65 -11 47 -45 61 -64 26z"/>
<path d="M3062 4462 c-7 -5 -16 -35 -20 -68 l-7 -59 -57 -9 c-49 -7 -57 -11
-63 -34 -9 -36 14 -54 71 -56 l49 -1 6 -47 c9 -60 15 -68 45 -68 27 0 44 30
44 80 0 25 4 29 43 36 23 4 45 7 50 6 4 -1 7 3 7 8 0 6 7 10 15 10 18 0 20 34
3 48 -7 5 -31 13 -52 16 -52 8 -66 22 -66 62 0 68 -29 100 -68 76z"/>
</g>
</svg>
